<svg width="28" height="28" viewBox="0 0 28 28" fill="none" xmlns="http://www.w3.org/2000/svg">
<path d="M2.33301 25.6641H25.6663" stroke="#ABABAB" stroke-width="1.12" stroke-linecap="round" stroke-linejoin="round"/>
<path d="M3.62793 25.6641V15.1641C3.62793 13.2274 5.36626 11.6641 7.51293 11.6641H20.4746C22.6213 11.6641 24.3596 13.2274 24.3596 15.1641V25.6641" stroke="#ABABAB" stroke-width="1.12" stroke-linecap="round" stroke-linejoin="round"/>
<path d="M6.48535 11.6693V8.3676C6.48535 6.9676 7.74535 5.83594 9.30868 5.83594H18.7004C20.252 5.83594 21.512 6.9676 21.512 8.3676V11.6693" stroke="#ABABAB" stroke-width="1.12" stroke-linecap="round" stroke-linejoin="round"/>
<path d="M4.12012 16.3125L4.55178 16.3242C5.41512 16.3358 6.10345 17.0358 6.10345 17.8992V18.2842C6.10345 19.1475 6.80345 19.8592 7.67845 19.8592C8.54178 19.8592 9.25345 19.1592 9.25345 18.2842V17.9225C9.25345 17.0592 9.95345 16.3475 10.8285 16.3475C11.6918 16.3475 12.4035 17.0475 12.4035 17.9225V18.2842C12.4035 19.1475 13.1034 19.8592 13.9784 19.8592C14.8418 19.8592 15.5535 19.1592 15.5535 18.2842V17.9225C15.5535 17.0592 16.2535 16.3475 17.1285 16.3475C17.9918 16.3475 18.7035 17.0475 18.7035 17.9225V18.2842C18.7035 19.1475 19.4034 19.8592 20.2784 19.8592C21.1418 19.8592 21.8534 19.1592 21.8534 18.2842V17.9225C21.8534 17.0592 22.5534 16.3475 23.4284 16.3475H23.9534" stroke="#ABABAB" stroke-width="1.12" stroke-linecap="round" stroke-linejoin="round"/>
<path d="M9.33301 5.83333V3.5" stroke="#ABABAB" stroke-width="1.12" stroke-linecap="round" stroke-linejoin="round"/>
<path d="M18.667 5.83333V3.5" stroke="#ABABAB" stroke-width="1.12" stroke-linecap="round" stroke-linejoin="round"/>
<path d="M14 5.83594V2.33594" stroke="#ABABAB" stroke-width="1.12" stroke-linecap="round" stroke-linejoin="round"/>
</svg>
