<svg width="30" height="30" viewBox="0 0 30 30" fill="none" xmlns="http://www.w3.org/2000/svg">
<path d="M2.5 27.5H27.5" stroke="#3572EF" stroke-width="1.2" stroke-linecap="round" stroke-linejoin="round"/>
<path d="M3.8877 27.5V16.25C3.8877 14.175 5.7502 12.5 8.0502 12.5H21.9377C24.2377 12.5 26.1002 14.175 26.1002 16.25V27.5" stroke="#3572EF" stroke-width="1.2" stroke-linecap="round" stroke-linejoin="round"/>
<path d="M6.94922 12.5V8.9625C6.94922 7.4625 8.29922 6.25 9.97422 6.25H20.0367C21.6992 6.25 23.0492 7.4625 23.0492 8.9625V12.5" stroke="#3572EF" stroke-width="1.2" stroke-linecap="round" stroke-linejoin="round"/>
<path d="M4.41309 17.4688L4.87559 17.4813C5.80059 17.4938 6.53809 18.2438 6.53809 19.1688V19.5813C6.53809 20.5063 7.28809 21.2688 8.22559 21.2688C9.15059 21.2688 9.91309 20.5188 9.91309 19.5813V19.1938C9.91309 18.2688 10.6631 17.5063 11.6006 17.5063C12.5256 17.5063 13.2881 18.2563 13.2881 19.1938V19.5813C13.2881 20.5063 14.0381 21.2688 14.9756 21.2688C15.9006 21.2688 16.6631 20.5188 16.6631 19.5813V19.1938C16.6631 18.2688 17.4131 17.5063 18.3506 17.5063C19.2756 17.5063 20.0381 18.2563 20.0381 19.1938V19.5813C20.0381 20.5063 20.7881 21.2688 21.7256 21.2688C22.6506 21.2688 23.4131 20.5188 23.4131 19.5813V19.1938C23.4131 18.2688 24.1631 17.5063 25.1006 17.5063H25.6631" stroke="#3572EF" stroke-width="1.2" stroke-linecap="round" stroke-linejoin="round"/>
<path d="M10 6.25V3.75" stroke="#3572EF" stroke-width="1.2" stroke-linecap="round" stroke-linejoin="round"/>
<path d="M20 6.25V3.75" stroke="#3572EF" stroke-width="1.2" stroke-linecap="round" stroke-linejoin="round"/>
<path d="M15 6.25V2.5" stroke="#3572EF" stroke-width="1.2" stroke-linecap="round" stroke-linejoin="round"/>
</svg>
