<svg width="26" height="26" viewBox="0 0 26 26" fill="none" xmlns="http://www.w3.org/2000/svg">
<path d="M8.66797 13.2168H16.2513" stroke="#C4C4C4" stroke-miterlimit="10" stroke-linecap="round" stroke-linejoin="round"/>
<path d="M8.66797 17.5508H13.413" stroke="#C4C4C4" stroke-miterlimit="10" stroke-linecap="round" stroke-linejoin="round"/>
<path d="M10.8346 6.49935H15.168C17.3346 6.49935 17.3346 5.41602 17.3346 4.33268C17.3346 2.16602 16.2513 2.16602 15.168 2.16602H10.8346C9.7513 2.16602 8.66797 2.16602 8.66797 4.33268C8.66797 6.49935 9.7513 6.49935 10.8346 6.49935Z" stroke="#C4C4C4" stroke-miterlimit="10" stroke-linecap="round" stroke-linejoin="round"/>
<path d="M17.3333 4.35547C20.9408 4.55047 22.75 5.88297 22.75 10.8338V17.3338C22.75 21.6671 21.6667 23.8338 16.25 23.8338H9.75C4.33333 23.8338 3.25 21.6671 3.25 17.3338V10.8338C3.25 5.8938 5.05917 4.55047 8.66667 4.35547" stroke="#C4C4C4" stroke-miterlimit="10" stroke-linecap="round" stroke-linejoin="round"/>
</svg>
