<svg width="26" height="26" viewBox="0 0 26 26" fill="none" xmlns="http://www.w3.org/2000/svg">
<path d="M23.8333 9.22935V4.31102C23.8333 2.78352 23.14 2.16602 21.4175 2.16602H17.0408C15.3183 2.16602 14.625 2.78352 14.625 4.31102V9.21852C14.625 10.7568 15.3183 11.3635 17.0408 11.3635H21.4175C23.14 11.3743 23.8333 10.7568 23.8333 9.22935Z" stroke="#C4C4C4" stroke-linecap="round" stroke-linejoin="round"/>
<path d="M23.8333 21.4175V17.0408C23.8333 15.3183 23.14 14.625 21.4175 14.625H17.0408C15.3183 14.625 14.625 15.3183 14.625 17.0408V21.4175C14.625 23.14 15.3183 23.8333 17.0408 23.8333H21.4175C23.14 23.8333 23.8333 23.14 23.8333 21.4175Z" stroke="#C4C4C4" stroke-linecap="round" stroke-linejoin="round"/>
<path d="M11.3763 9.22935V4.31102C11.3763 2.78352 10.683 2.16602 8.96047 2.16602H4.5838C2.8613 2.16602 2.16797 2.78352 2.16797 4.31102V9.21852C2.16797 10.7568 2.8613 11.3635 4.5838 11.3635H8.96047C10.683 11.3743 11.3763 10.7568 11.3763 9.22935Z" stroke="#C4C4C4" stroke-linecap="round" stroke-linejoin="round"/>
<path d="M11.3763 21.4175V17.0408C11.3763 15.3183 10.683 14.625 8.96047 14.625H4.5838C2.8613 14.625 2.16797 15.3183 2.16797 17.0408V21.4175C2.16797 23.14 2.8613 23.8333 4.5838 23.8333H8.96047C10.683 23.8333 11.3763 23.14 11.3763 21.4175Z" stroke="#C4C4C4" stroke-linecap="round" stroke-linejoin="round"/>
</svg>
