<svg width="18" height="18" viewBox="0 0 18 18" fill="none" xmlns="http://www.w3.org/2000/svg">
<path d="M1.5 7.485V6.75C1.5 3 3 1.5 6.75 1.5H11.25C15 1.5 16.5 3 16.5 6.75V11.25C16.5 15 15 16.5 11.25 16.5H10.5" stroke="#5E5E5E" stroke-linecap="round" stroke-linejoin="round"/>
<path d="M9.75 8.24937L13.5075 4.48438H10.5" stroke="#5E5E5E" stroke-linecap="round" stroke-linejoin="round"/>
<path d="M13.5088 4.48438V7.49187" stroke="#5E5E5E" stroke-linecap="round" stroke-linejoin="round"/>
<path d="M8.25 12.1125V14.1375C8.25 15.825 7.575 16.5 5.8875 16.5H3.8625C2.175 16.5 1.5 15.825 1.5 14.1375V12.1125C1.5 10.425 2.175 9.75 3.8625 9.75H5.8875C7.575 9.75 8.25 10.425 8.25 12.1125Z" stroke="#5E5E5E" stroke-linecap="round" stroke-linejoin="round"/>
</svg>
