<svg width="26" height="26" viewBox="0 0 26 26" fill="none" xmlns="http://www.w3.org/2000/svg">
<path d="M23.7556 7.3244L20.1048 21.9819C19.8448 23.0761 18.8698 23.8344 17.7431 23.8344H3.50811C1.87227 23.8344 0.70229 22.231 1.18979 20.6602L5.75061 6.01361C6.06478 4.99528 7.0073 4.29102 8.06896 4.29102H21.394C22.4231 4.29102 23.279 4.91935 23.6365 5.78602C23.8423 6.25185 23.8856 6.78274 23.7556 7.3244Z" stroke="#C4C4C4" stroke-miterlimit="10"/>
<path d="M17.332 23.8333H22.5104C23.9079 23.8333 25.002 22.6525 24.9045 21.255L23.832 6.5" stroke="#C4C4C4" stroke-miterlimit="10" stroke-linecap="round" stroke-linejoin="round"/>
<path d="M10.4844 6.91236L11.6111 2.23242" stroke="#C4C4C4" stroke-miterlimit="10" stroke-linecap="round" stroke-linejoin="round"/>
<path d="M17.7422 6.92429L18.7605 2.22266" stroke="#C4C4C4" stroke-miterlimit="10" stroke-linecap="round" stroke-linejoin="round"/>
<path d="M8.33984 13H17.0065" stroke="#C4C4C4" stroke-miterlimit="10" stroke-linecap="round" stroke-linejoin="round"/>
<path d="M7.25781 17.334H15.9245" stroke="#C4C4C4" stroke-miterlimit="10" stroke-linecap="round" stroke-linejoin="round"/>
</svg>
