<svg width="30" height="30" viewBox="0 0 30 30" fill="none" xmlns="http://www.w3.org/2000/svg">
<path d="M23.7119 27.5H6.21191C2.46191 27.5 2.46191 25.8125 2.46191 23.75V22.5C2.46191 21.8125 3.02441 21.25 3.71191 21.25H26.2119C26.8994 21.25 27.4619 21.8125 27.4619 22.5V23.75C27.4619 25.8125 27.4619 27.5 23.7119 27.5Z" stroke="#3572EF" stroke-width="1.2" stroke-linecap="round" stroke-linejoin="round"/>
<path d="M25.8994 16.25V21.25H4.08691V16.25C4.08691 11.45 7.47441 7.4375 11.9869 6.475C12.6619 6.325 13.3619 6.25 14.0869 6.25H15.8994C16.6244 6.25 17.3369 6.325 18.0119 6.475C22.5244 7.45 25.8994 11.45 25.8994 16.25Z" stroke="#3572EF" stroke-width="1.2" stroke-linecap="round" stroke-linejoin="round"/>
<path d="M18.125 5.625C18.125 5.925 18.0875 6.2 18.0125 6.475C17.3375 6.325 16.625 6.25 15.9 6.25H14.0875C13.3625 6.25 12.6625 6.325 11.9875 6.475C11.9125 6.2 11.875 5.925 11.875 5.625C11.875 3.9 13.275 2.5 15 2.5C16.725 2.5 18.125 3.9 18.125 5.625Z" stroke="#3572EF" stroke-width="1.2" stroke-linecap="round" stroke-linejoin="round"/>
<path d="M18.75 13.75H11.25" stroke="#3572EF" stroke-width="1.2" stroke-linecap="round" stroke-linejoin="round"/>
</svg>
