<svg width="26" height="26" viewBox="0 0 26 26" fill="none" xmlns="http://www.w3.org/2000/svg">
<path d="M3.26562 12.1562V17.0204C3.26562 21.8846 5.21563 23.8346 10.0798 23.8346H15.919C20.7831 23.8346 22.7331 21.8846 22.7331 17.0204V12.1562" stroke="#C4C4C4" stroke-linecap="round" stroke-linejoin="round"/>
<path d="M13.0018 12.9974C14.9843 12.9974 16.4468 11.3832 16.2518 9.40073L15.5368 2.16406H10.4777L9.75182 9.40073C9.55682 11.3832 11.0193 12.9974 13.0018 12.9974Z" stroke="#C4C4C4" stroke-linecap="round" stroke-linejoin="round"/>
<path d="M19.8364 12.9974C22.0247 12.9974 23.628 11.2207 23.4114 9.04323L23.108 6.06406C22.718 3.2474 21.6347 2.16406 18.7964 2.16406H15.4922L16.2505 9.75823C16.4347 11.5457 18.0489 12.9974 19.8364 12.9974Z" stroke="#C4C4C4" stroke-linecap="round" stroke-linejoin="round"/>
<path d="M6.11024 12.9974C7.89774 12.9974 9.51191 11.5457 9.68524 9.75823L9.92357 7.36406L10.4436 2.16406H7.13941C4.30107 2.16406 3.21774 3.2474 2.82774 6.06406L2.53524 9.04323C2.31857 11.2207 3.92191 12.9974 6.11024 12.9974Z" stroke="#C4C4C4" stroke-linecap="round" stroke-linejoin="round"/>
<path d="M12.9974 18.4141C11.1882 18.4141 10.2891 19.3132 10.2891 21.1224V23.8307H15.7057V21.1224C15.7057 19.3132 14.8066 18.4141 12.9974 18.4141Z" stroke="#C4C4C4" stroke-linecap="round" stroke-linejoin="round"/>
</svg>
