<svg width="18" height="18" viewBox="0 0 18 18" fill="none" xmlns="http://www.w3.org/2000/svg">
<path d="M15.75 4.48438C13.2525 4.23687 10.74 4.10938 8.235 4.10938C6.75 4.10938 5.265 4.18438 3.78 4.33438L2.25 4.48438" stroke="#FF0000" stroke-width="1.13" stroke-linecap="round" stroke-linejoin="round"/>
<path d="M6.375 3.7275L6.54 2.745C6.66 2.0325 6.75 1.5 8.0175 1.5H9.9825C11.25 1.5 11.3475 2.0625 11.46 2.7525L11.625 3.7275" stroke="#FF0000" stroke-width="1.13" stroke-linecap="round" stroke-linejoin="round"/>
<path d="M14.1373 6.85156L13.6498 14.4041C13.5673 15.5816 13.4998 16.4966 11.4073 16.4966H6.5923C4.4998 16.4966 4.4323 15.5816 4.3498 14.4041L3.8623 6.85156" stroke="#FF0000" stroke-width="1.13" stroke-linecap="round" stroke-linejoin="round"/>
<path d="M7.74707 12.375H10.2446" stroke="#FF0000" stroke-width="1.13" stroke-linecap="round" stroke-linejoin="round"/>
<path d="M7.125 9.375H10.875" stroke="#FF0000" stroke-width="1.13" stroke-linecap="round" stroke-linejoin="round"/>
</svg>
