<svg width="30" height="30" viewBox="0 0 30 30" fill="none" xmlns="http://www.w3.org/2000/svg">
<path d="M13.4395 21.0781V23.6157C13.4395 25.7657 11.4395 27.5031 8.97697 27.5031C6.51447 27.5031 4.50195 25.7657 4.50195 23.6157V21.0781C4.50195 23.2281 6.50197 24.7531 8.97697 24.7531C11.4395 24.7531 13.4395 23.2156 13.4395 21.0781Z" stroke="#3572EF" stroke-width="1.2" stroke-linecap="round" stroke-linejoin="round"/>
<path d="M13.4373 17.6328C13.4373 18.2578 13.2623 18.8328 12.9623 19.3328C12.2248 20.5453 10.7122 21.3078 8.96225 21.3078C7.21225 21.3078 5.69973 20.5328 4.96223 19.3328C4.66223 18.8328 4.4873 18.2578 4.4873 17.6328C4.4873 16.5578 4.98728 15.5953 5.78728 14.8953C6.59978 14.1828 7.71224 13.7578 8.94974 13.7578C10.1872 13.7578 11.2998 14.1953 12.1123 14.8953C12.9373 15.5828 13.4373 16.5578 13.4373 17.6328Z" stroke="#3572EF" stroke-width="1.2" stroke-linecap="round" stroke-linejoin="round"/>
<path d="M13.4395 17.6375V21.075C13.4395 23.225 11.4395 24.75 8.97697 24.75C6.51447 24.75 4.50195 23.2125 4.50195 21.075V17.6375C4.50195 15.4875 6.50197 13.75 8.97697 13.75C10.2145 13.75 11.327 14.1875 12.1395 14.8875C12.9395 15.5875 13.4395 16.5625 13.4395 17.6375Z" stroke="#3572EF" stroke-width="1.2" stroke-linecap="round" stroke-linejoin="round"/>
<path d="M27.5003 13.7124V16.2875C27.5003 16.975 26.9503 17.5375 26.2503 17.5625H23.8002C22.4502 17.5625 21.2128 16.575 21.1003 15.225C21.0253 14.4375 21.3252 13.7 21.8502 13.1875C22.3127 12.7125 22.9502 12.4375 23.6502 12.4375H26.2503C26.9503 12.4625 27.5003 13.0249 27.5003 13.7124Z" stroke="#3572EF" stroke-width="1.2" stroke-linecap="round" stroke-linejoin="round"/>
<path d="M2.5 13.125V10.625C2.5 7.225 4.55 4.85 7.7375 4.45C8.0625 4.4 8.4 4.375 8.75 4.375H20C20.325 4.375 20.6375 4.38748 20.9375 4.43748C24.1625 4.81248 26.25 7.2 26.25 10.625V12.4375H23.65C22.95 12.4375 22.3125 12.7125 21.85 13.1875C21.325 13.7 21.025 14.4375 21.1 15.225C21.2125 16.575 22.45 17.5625 23.8 17.5625H26.25V19.375C26.25 23.125 23.75 25.625 20 25.625H16.875" stroke="#3572EF" stroke-width="1.2" stroke-linecap="round" stroke-linejoin="round"/>
</svg>
